<svg width="11" height="11" viewBox="0 0 11 11" fill="none" xmlns="http://www.w3.org/2000/svg">
<path d="M10.6283 0.371747C10.1326 -0.123916 9.32895 -0.123916 8.83333 0.371747L5.49998 3.70515L2.16663 0.37178C1.67095 -0.123882 0.867438 -0.123882 0.371759 0.37178C-0.123919 0.867443 -0.123919 1.67109 0.371759 2.16667L3.70494 5.50002L0.371759 8.83337C-0.123919 9.32888 -0.123919 10.1326 0.371759 10.6282C0.867438 11.1239 1.67112 11.1239 2.1668 10.6282L5.49998 7.29506L8.83316 10.6282C9.32891 11.1239 10.1326 11.1239 10.6282 10.6282C11.1239 10.1326 11.1239 9.32905 10.6282 8.83337L7.29485 5.50002L10.6283 2.16667C11.1239 1.67105 11.1239 0.867409 10.6283 0.371747Z" fill="#414040"/>
</svg>
