<svg width="33" height="23" viewBox="0 0 33 23" fill="none" xmlns="http://www.w3.org/2000/svg">
<path d="M31.7833 0H1.56127C1.15118 0 0.913696 0.319418 0.913696 0.708541V16.1437V16.6757V18.952V19.465V22.2736C0.913696 22.6623 1.15118 23 1.56127 23H31.7833C32.1939 23 32.6114 22.6623 32.6114 22.2732V19.4648V19.2214V16.6755V16.4131V0.708541C32.6114 0.319418 32.1939 0 31.7833 0ZM31.1256 21.5918H2.39953V20.1837H31.1256V21.5918ZM31.1256 18.7755H2.39953V17.3673H31.1256V18.7755ZM31.1256 15.9592H2.39953V1.40816H31.1256V15.9592Z" fill="white"/>
<path d="M4.28976 2.56185C4.01216 2.29876 3.51688 2.29876 3.23978 2.56185C3.10085 2.69351 3.02161 2.87399 3.02161 3.0594C3.02161 3.24504 3.10085 3.42552 3.23978 3.55695C3.37845 3.68838 3.56914 3.76348 3.76452 3.76348C3.9604 3.76348 4.15109 3.68838 4.28976 3.55695C4.42869 3.42529 4.50744 3.24504 4.50744 3.0594C4.50744 2.87399 4.42869 2.69328 4.28976 2.56185Z" fill="white"/>
<path d="M29.8479 2.56185C29.5703 2.29876 29.075 2.29876 28.7979 2.56185C28.659 2.69351 28.5797 2.87399 28.5797 3.0594C28.5797 3.24504 28.659 3.42552 28.7979 3.55695C28.9368 3.68838 29.1272 3.76348 29.3226 3.76348C29.5185 3.76348 29.7092 3.68838 29.8479 3.55695C29.9868 3.42529 30.0655 3.24504 30.0655 3.0594C30.0655 2.87399 29.9868 2.69328 29.8479 2.56185Z" fill="white"/>
<path d="M4.28976 13.8323C4.01216 13.5695 3.51688 13.5695 3.23978 13.8323C3.10085 13.964 3.02161 14.1445 3.02161 14.3301C3.02161 14.5153 3.10085 14.6965 3.23978 14.8274C3.3787 14.9591 3.56914 15.0342 3.76452 15.0342C3.9604 15.0342 4.15109 14.9591 4.28976 14.8274C4.42869 14.6962 4.50744 14.5153 4.50744 14.3301C4.50744 14.1445 4.42869 13.9638 4.28976 13.8323Z" fill="white"/>
<path d="M29.8479 14.067C29.5703 13.8042 29.075 13.8042 28.7979 14.067C28.659 14.1987 28.5797 14.3792 28.5797 14.5648C28.5797 14.75 28.659 14.9312 28.7979 15.0621C28.9368 15.1938 29.1272 15.2689 29.3226 15.2689C29.5185 15.2689 29.7092 15.1938 29.8479 15.0621C29.9868 14.9309 30.0655 14.75 30.0655 14.5648C30.0655 14.3792 29.9868 14.1984 29.8479 14.067Z" fill="white"/>
<path d="M29.3573 4.77963C28.2202 4.77963 27.2776 3.89835 27.2776 2.8204C27.2776 2.69061 27.1494 2.58148 27.0127 2.58148H6.07458C5.93764 2.58148 5.82694 2.69061 5.82694 2.8204C5.82694 3.89835 4.96219 4.77728 3.82503 4.77728C3.68809 4.77728 3.63782 4.8843 3.63782 5.01432V12.1354C3.63782 12.265 3.68809 12.3701 3.82503 12.3701C4.96219 12.3701 5.85715 13.2429 5.85715 14.3206C5.85715 14.4504 5.93764 14.5511 6.07458 14.5511H27.0127C27.1496 14.5511 27.2603 14.4502 27.2603 14.3206C27.2603 13.2429 28.2204 12.3682 29.3576 12.3682C29.4943 12.368 29.6399 12.265 29.6399 12.1354V5.01432C29.6399 4.8843 29.4943 4.77963 29.3573 4.77963ZM8.01929 10.0729C7.08098 10.0729 6.32024 9.3517 6.32024 8.46244C6.32024 7.57319 7.08098 6.85221 8.01929 6.85221C8.95759 6.85221 9.71834 7.57319 9.71834 8.46244C9.71834 9.3517 8.95759 10.0729 8.01929 10.0729ZM19.8789 10.9859C19.4121 10.4935 18.4961 10.2757 17.7532 10.1766V9.36883C18.2485 8.9607 18.4686 8.11134 18.4686 7.26433C18.4686 5.79538 17.6799 5.40626 16.6886 5.40626C15.6973 5.40626 14.8665 5.79538 14.8665 7.26433C14.8665 8.1111 15.2771 8.9607 15.5247 9.36883V10.1766C14.7818 10.2785 13.8774 10.5062 13.4238 11.0302C13.0243 10.2914 12.8074 9.40802 12.8074 8.45728C12.8074 5.86931 14.5386 3.77161 16.6644 3.77161C18.7896 3.77161 20.502 5.86931 20.502 8.45728C20.5018 9.38948 20.2645 10.256 19.8789 10.9859ZM25.3951 10.0729C24.4568 10.0729 23.6961 9.3517 23.6961 8.46244C23.6961 7.57319 24.4568 6.85221 25.3951 6.85221C26.3334 6.85221 27.0941 7.57319 27.0941 8.46244C27.0941 9.3517 26.3334 10.0729 25.3951 10.0729Z" fill="white"/>
</svg>
